<svg xmlns="http://www.w3.org/2000/svg" width="1440" height="820" viewBox="0 0 1440 820" role="img" aria-labelledby="title desc">
  <title id="title">Ecosistema de servicios Effiwaste</title>
  <desc id="desc">Panel de servicios de Effiwaste Suite con accesos a Effiwaste, Effilabel y EffiChef.</desc>
  <defs>
    <linearGradient id="nav" x1="0" y1="0" x2="0.8" y2="1">
      <stop stop-color="#0b3765"/>
      <stop offset="1" stop-color="#062643"/>
    </linearGradient>
    <linearGradient id="bg" x1="0" y1="0" x2="1" y2="1">
      <stop stop-color="#f8fbfd"/>
      <stop offset="1" stop-color="#eef5fa"/>
    </linearGradient>
    <filter id="cardShadow" x="-20%" y="-20%" width="140%" height="170%">
      <feDropShadow dx="0" dy="12" stdDeviation="16" flood-color="#073b6c" flood-opacity="0.09"/>
    </filter>
  </defs>

  <rect width="1440" height="820" rx="28" fill="url(#bg)"/>
  <rect width="258" height="820" rx="28" fill="url(#nav)"/>
  <circle cx="28" cy="725" r="210" fill="#00b6bd" opacity="0.08"/>

  <g transform="translate(27 29)" font-family="Arial, sans-serif">
    <rect width="39" height="39" rx="11" fill="#45d5da"/>
    <text x="19.5" y="27" text-anchor="middle" fill="#073b6c" font-size="18" font-weight="800">E</text>
    <text x="52" y="17" fill="#fff" font-size="13" font-weight="800" letter-spacing="2.2">EFFIWASTE</text>
    <text x="52" y="34" fill="#fff" opacity="0.55" font-size="8" letter-spacing="1.8">SUITE</text>
  </g>

  <g transform="translate(18 111)" font-family="Arial, sans-serif">
    <text x="13" y="13" fill="#fff" opacity="0.38" font-size="8" font-weight="700" letter-spacing="1.7">ESPACIO DE TRABAJO</text>
    <g transform="translate(0 30)">
      <rect width="222" height="63" rx="12" fill="#fff" fill-opacity="0.12"/>
      <rect width="4" height="35" y="14" rx="2" fill="#00b6bd"/>
      <rect x="15" y="17" width="28" height="28" rx="8" fill="#00b6bd" fill-opacity="0.18"/>
      <path d="M23 25h5v5h-5zm9 0h5v5h-5zm-9 9h5v5h-5zm9 0h5v5h-5z" fill="#55edf2"/>
      <text x="55" y="28" fill="#fff" font-size="12" font-weight="700">Servicios</text>
      <text x="55" y="45" fill="#fff" opacity="0.52" font-size="9">Accede a tus plataformas</text>
    </g>
    <g transform="translate(0 101)" fill="#fff">
      <rect x="15" y="17" width="28" height="28" rx="8" fill="#fff" fill-opacity="0.06"/>
      <path d="M22 24h15v11H27l-5 4z" fill="none" stroke="#fff" stroke-opacity="0.62" stroke-width="1.5"/>
      <text x="55" y="28" opacity="0.69" font-size="12" font-weight="700">Asistente AI</text>
      <text x="55" y="45" opacity="0.38" font-size="9">Consulta tu conocimiento</text>
    </g>
    <g transform="translate(0 172)" fill="#fff">
      <rect x="15" y="17" width="28" height="28" rx="8" fill="#fff" fill-opacity="0.06"/>
      <path d="M23 24h14v15H25a3 3 0 0 0-2 1zM27 28h7M27 32h7" fill="none" stroke="#fff" stroke-opacity="0.62" stroke-width="1.5"/>
      <text x="55" y="28" opacity="0.69" font-size="12" font-weight="700">Biblioteca</text>
      <text x="55" y="45" opacity="0.38" font-size="9">Todos tus documentos</text>
    </g>
    <g transform="translate(0 243)" fill="#fff">
      <rect x="15" y="17" width="28" height="28" rx="8" fill="#fff" fill-opacity="0.06"/>
      <path d="M29 23a6 6 0 0 1 4 11v4h-8v-4a6 6 0 0 1 4-11z" fill="none" stroke="#fff" stroke-opacity="0.62" stroke-width="1.5"/>
      <text x="55" y="28" opacity="0.69" font-size="12" font-weight="700">Recomendaciones</text>
      <text x="55" y="45" opacity="0.38" font-size="9">Acciones y seguimiento</text>
    </g>
  </g>

  <g transform="translate(297 68)" font-family="Arial, sans-serif">
    <text fill="#0b5394" font-size="10" font-weight="800" letter-spacing="2.2">ECOSISTEMA EFFIWASTE</text>
    <text y="55" fill="#073b6c" font-size="43" font-weight="700" letter-spacing="-1.2">Todos tus servicios, en un solo lugar</text>
    <text y="90" fill="#617487" font-size="16">Acceso directo a las plataformas que conectan la gestión diaria de tu organización.</text>
  </g>

  <g transform="translate(297 224)" font-family="Arial, sans-serif" filter="url(#cardShadow)">
    <g>
      <rect width="342" height="420" rx="19" fill="#fff" stroke="#d9e5ed"/>
      <circle cx="312" cy="-8" r="88" fill="#0b5394" opacity="0.025"/>
      <rect x="24" y="24" width="58" height="58" rx="15" fill="#eaf3fb"/>
      <path d="M39 65h28l-3-26H42zM47 49a7 7 0 0 1 14 0m-7 0 6-6" fill="none" stroke="#0b5394" stroke-width="2.5" stroke-linecap="round"/>
      <text x="24" y="124" fill="#0b5394" font-size="9" font-weight="800" letter-spacing="1.6">DESPERDICIO ALIMENTARIO</text>
      <text x="24" y="166" fill="#073b6c" font-size="25" font-weight="700">Effiwaste</text>
      <text x="24" y="203" fill="#617487" font-size="14">Mide, controla y analiza el</text>
      <text x="24" y="226" fill="#617487" font-size="14">desperdicio alimentario de tu</text>
      <text x="24" y="249" fill="#617487" font-size="14">operativa.</text>
      <line x1="24" y1="345" x2="318" y2="345" stroke="#e4edf3"/>
      <text x="24" y="381" fill="#0b5394" font-size="12" font-weight="700">Acceder al servicio</text>
      <text x="293" y="383" fill="#00b6bd" font-size="23">→</text>
    </g>

    <g transform="translate(366)">
      <rect width="342" height="420" rx="19" fill="#fff" stroke="#d9e5ed"/>
      <circle cx="312" cy="-8" r="88" fill="#00b6bd" opacity="0.04"/>
      <rect x="24" y="24" width="58" height="58" rx="15" fill="#e2f9fa"/>
      <rect x="39" y="38" width="29" height="28" rx="4" fill="none" stroke="#087e83" stroke-width="2.5"/>
      <path d="M45 46h17M45 53h13M45 60h9" stroke="#087e83" stroke-width="2.2" stroke-linecap="round"/>
      <text x="24" y="124" fill="#087e83" font-size="9" font-weight="800" letter-spacing="1.6">ETIQUETADO ELECTRÓNICO</text>
      <text x="24" y="166" fill="#073b6c" font-size="25" font-weight="700">Effilabel</text>
      <text x="24" y="203" fill="#617487" font-size="14">Gestiona la información del buffet</text>
      <text x="24" y="226" fill="#617487" font-size="14">y actualiza tus etiquetas en</text>
      <text x="24" y="249" fill="#617487" font-size="14">tiempo real.</text>
      <line x1="24" y1="345" x2="318" y2="345" stroke="#e4edf3"/>
      <text x="24" y="381" fill="#0b5394" font-size="12" font-weight="700">Acceder al servicio</text>
      <text x="293" y="383" fill="#00b6bd" font-size="23">→</text>
    </g>

    <g transform="translate(732)">
      <rect width="342" height="420" rx="19" fill="#fff" stroke="#d9e5ed"/>
      <circle cx="312" cy="-8" r="88" fill="#6bac00" opacity="0.04"/>
      <rect x="24" y="24" width="58" height="58" rx="15" fill="#eef7df"/>
      <path d="M40 66h27M43 66V49a11 11 0 0 1 21 0v17M38 49h31M49 36c0-5 9-5 9 0" fill="none" stroke="#578900" stroke-width="2.4" stroke-linecap="round"/>
      <text x="24" y="124" fill="#578900" font-size="9" font-weight="800" letter-spacing="1.6">GESTIÓN DE COCINA</text>
      <text x="24" y="166" fill="#073b6c" font-size="25" font-weight="700">EffiChef</text>
      <text x="24" y="203" fill="#617487" font-size="14">Centraliza inventarios, escandallos,</text>
      <text x="24" y="226" fill="#617487" font-size="14">producción y logística de cocina.</text>
      <line x1="24" y1="345" x2="318" y2="345" stroke="#e4edf3"/>
      <text x="24" y="381" fill="#0b5394" font-size="12" font-weight="700">Acceder al servicio</text>
      <text x="293" y="383" fill="#00b6bd" font-size="23">→</text>
    </g>
  </g>

  <g transform="translate(24 745)" font-family="Arial, sans-serif">
    <circle cx="23" cy="23" r="21" fill="#e2f9fa"/>
    <text x="23" y="28" text-anchor="middle" fill="#0b5394" font-size="13" font-weight="800">U</text>
    <text x="54" y="19" fill="#fff" font-size="11" font-weight="700">Usuario Demo</text>
    <text x="54" y="35" fill="#fff" opacity="0.48" font-size="9">Hotel Demo</text>
  </g>
</svg>
